<?xml version="1.0" encoding="UTF-8" standalone="no"?>
<svg
   id="Camada_1"
   version="1.1"
   viewBox="0 0 114 86"
   sodipodi:docname="logo_euroville_new.svg"
   width="114"
   height="86"
   inkscape:version="1.3.2 (091e20e, 2023-11-25, custom)"
   xmlns:inkscape="http://www.inkscape.org/namespaces/inkscape"
   xmlns:sodipodi="http://sodipodi.sourceforge.net/DTD/sodipodi-0.dtd"
   xmlns="http://www.w3.org/2000/svg"
   xmlns:svg="http://www.w3.org/2000/svg">
  <sodipodi:namedview
     id="namedview4"
     pagecolor="#505050"
     bordercolor="#eeeeee"
     borderopacity="1"
     inkscape:showpageshadow="0"
     inkscape:pageopacity="0"
     inkscape:pagecheckerboard="0"
     inkscape:deskcolor="#505050"
     inkscape:zoom="4.7801034"
     inkscape:cx="84.935401"
     inkscape:cy="85.040001"
     inkscape:window-width="1920"
     inkscape:window-height="1009"
     inkscape:window-x="-8"
     inkscape:window-y="-8"
     inkscape:window-maximized="1"
     inkscape:current-layer="Camada_1" />
  <defs
     id="defs1">
    <style
       id="style1">.st0{fill-rule:evenodd}.st0,.st1{fill:#311211}</style>
  </defs>
  <g
     id="g4"
     transform="matrix(1.0101905,0,0,1.0215089,-28.921754,-43.884856)">
    <path
       d="m 129.62,110.87 c 0.42,-0.13 0.89,-0.33 1.4,-0.61 0.52,-0.28 1.04,-0.61 1.57,-0.99 0.53,-0.39 1.04,-0.84 1.52,-1.36 0.49,-0.52 0.89,-1.08 1.21,-1.7 0.42,-0.77 0.61,-1.44 0.56,-2.01 -0.05,-0.56 -0.39,-0.8 -1.04,-0.7 -0.58,0.07 -1.13,0.33 -1.65,0.8 -0.52,0.47 -0.99,1.05 -1.43,1.74 -0.43,0.69 -0.84,1.47 -1.21,2.32 -0.37,0.85 -0.69,1.69 -0.94,2.49 m 11.86,-3.17 c -0.65,0.8 -1.48,1.79 -2.49,2.95 a 53.748,53.748 0 0 1 -3.22,3.37 c -1.13,1.08 -2.23,2 -3.31,2.76 -1.08,0.76 -1.99,1.14 -2.74,1.14 -0.45,0 -0.92,-0.09 -1.41,-0.26 -0.48,-0.18 -0.93,-0.44 -1.33,-0.78 -0.4,-0.34 -0.73,-0.75 -0.99,-1.23 -0.26,-0.49 -0.39,-1.03 -0.39,-1.64 0,-1.16 0.18,-2.35 0.53,-3.56 0.35,-1.21 0.84,-2.33 1.45,-3.37 0.61,-1.03 1.32,-1.91 2.13,-2.64 0.81,-0.73 1.65,-1.22 2.52,-1.48 0.68,-0.19 1.39,-0.29 2.15,-0.29 0.76,0 1.46,0.09 2.11,0.27 0.65,0.18 1.18,0.45 1.6,0.82 0.42,0.37 0.63,0.83 0.63,1.38 0,0.71 -0.22,1.35 -0.65,1.94 -0.44,0.58 -1.02,1.1 -1.74,1.55 -0.73,0.45 -1.57,0.86 -2.52,1.24 -0.95,0.37 -1.96,0.71 -3.02,1.04 0.68,-0.16 1.4,-0.3 2.16,-0.41 0.76,-0.11 1.31,-0.17 1.67,-0.17 0.58,0 0.87,0.06 0.87,0.19 0,0.26 -0.08,0.5 -0.24,0.73 -0.87,-0.16 -1.83,-0.18 -2.88,-0.05 -1.05,0.13 -2.04,0.29 -2.98,0.48 -0.16,0.55 -0.27,1.07 -0.31,1.57 -0.05,0.5 -0.09,0.94 -0.12,1.33 -0.03,0.87 0.07,1.47 0.31,1.82 0.24,0.34 0.57,0.51 0.99,0.51 0.58,0 1.37,-0.37 2.37,-1.11 1,-0.74 2.05,-1.65 3.15,-2.71 1.1,-1.07 2.16,-2.17 3.19,-3.32 1.03,-1.15 1.87,-2.12 2.52,-2.93 v 0.87 z m -13.65,-0.54 c -0.78,1.55 -1.57,2.94 -2.37,4.16 -0.81,1.23 -1.57,2.27 -2.28,3.15 -0.71,0.87 -1.35,1.54 -1.93,2.01 -0.58,0.47 -1.03,0.7 -1.36,0.7 -0.16,0 -0.36,-0.05 -0.6,-0.17 -0.24,-0.11 -0.48,-0.28 -0.73,-0.49 -0.24,-0.21 -0.45,-0.45 -0.63,-0.73 -0.18,-0.27 -0.27,-0.56 -0.27,-0.85 0,-0.39 0.12,-1.06 0.36,-2.01 0.24,-0.95 0.56,-2.07 0.94,-3.37 -0.71,1.26 -1.41,2.39 -2.11,3.39 -0.69,1 -1.35,1.85 -1.96,2.54 -0.61,0.69 -1.16,1.23 -1.65,1.6 -0.48,0.37 -0.87,0.56 -1.16,0.56 -0.16,0 -0.36,-0.06 -0.61,-0.17 a 3.6,3.6 0 0 1 -0.75,-0.48 c -0.26,-0.21 -0.47,-0.46 -0.65,-0.73 -0.18,-0.27 -0.27,-0.56 -0.27,-0.85 0,-0.42 0.15,-1.19 0.46,-2.32 0.31,-1.13 0.68,-2.42 1.14,-3.87 0.45,-1.45 0.94,-2.99 1.48,-4.6 0.53,-1.61 1.02,-3.15 1.48,-4.6 0.45,-1.45 0.83,-2.74 1.14,-3.85 0.3,-1.11 0.46,-1.9 0.46,-2.35 0,-0.13 0,-0.26 -0.02,-0.39 -0.02,-0.13 -0.06,-0.32 -0.12,-0.58 0.29,0.1 0.62,0.27 0.99,0.51 0.37,0.24 0.73,0.51 1.07,0.8 0.34,0.29 0.62,0.56 0.85,0.82 0.23,0.26 0.34,0.45 0.34,0.58 0,0.32 -0.16,1.07 -0.49,2.23 -0.32,1.16 -0.73,2.52 -1.21,4.06 -0.48,1.55 -1,3.18 -1.55,4.89 -0.55,1.71 -1.04,3.28 -1.48,4.7 -0.44,1.42 -0.77,2.6 -1.02,3.54 -0.24,0.94 -0.3,1.4 -0.17,1.4 0.1,0 0.35,-0.2 0.77,-0.61 0.42,-0.4 0.92,-0.98 1.5,-1.72 0.58,-0.74 1.23,-1.64 1.94,-2.71 0.71,-1.06 1.42,-2.26 2.13,-3.58 0.45,-1.51 0.93,-3.09 1.45,-4.72 0.52,-1.63 0.99,-3.17 1.43,-4.62 0.44,-1.45 0.8,-2.73 1.09,-3.83 0.29,-1.1 0.44,-1.86 0.44,-2.28 0,-0.13 0,-0.26 -0.03,-0.39 -0.02,-0.13 -0.06,-0.3 -0.12,-0.53 0.29,0.06 0.62,0.22 0.99,0.46 0.37,0.24 0.72,0.51 1.06,0.8 0.34,0.29 0.62,0.57 0.85,0.82 0.22,0.26 0.34,0.45 0.34,0.58 0,0.35 -0.17,1.13 -0.51,2.32 a 323.114,323.114 0 0 1 -2.8,9.37 c -0.56,1.79 -1.06,3.44 -1.5,4.94 -0.44,1.5 -0.77,2.74 -1.02,3.73 -0.24,0.99 -0.3,1.48 -0.17,1.48 0.13,0 0.42,-0.23 0.87,-0.68 0.45,-0.45 0.99,-1.09 1.62,-1.91 0.63,-0.82 1.32,-1.83 2.08,-3.02 0.76,-1.2 1.51,-2.52 2.25,-3.97 v 0.82 z M 110.74,97.7 c 0,0.39 -0.14,0.86 -0.41,1.43 -0.27,0.56 -0.41,1.25 -0.41,2.06 -0.94,-0.16 -1.67,-0.39 -2.2,-0.7 -0.53,-0.31 -0.8,-0.7 -0.8,-1.19 0,-0.42 0.14,-0.91 0.41,-1.48 0.28,-0.56 0.38,-1.19 0.32,-1.86 0.87,0.1 1.6,0.33 2.2,0.7 0.6,0.37 0.89,0.72 0.89,1.04 z m 1.45,9.98 c -0.78,1.52 -1.56,2.9 -2.35,4.16 -0.79,1.26 -1.54,2.34 -2.25,3.24 -0.71,0.9 -1.35,1.6 -1.91,2.08 -0.57,0.48 -1.01,0.73 -1.33,0.73 -0.16,0 -0.36,-0.06 -0.6,-0.17 -0.24,-0.11 -0.48,-0.27 -0.7,-0.48 -0.23,-0.21 -0.43,-0.45 -0.61,-0.73 -0.18,-0.27 -0.27,-0.57 -0.27,-0.89 0,-0.52 0.19,-1.35 0.56,-2.49 a 177,177 0 0 1 1.23,-3.68 c 0.45,-1.31 0.87,-2.61 1.26,-3.9 0.39,-1.29 0.61,-2.34 0.68,-3.15 0.16,0.06 0.4,0.17 0.73,0.34 0.32,0.16 0.65,0.34 0.97,0.53 0.32,0.19 0.61,0.4 0.87,0.61 0.26,0.21 0.4,0.41 0.44,0.61 0,0.13 -0.1,0.52 -0.29,1.19 a 170.157,170.157 0 0 1 -1.67,5.21 c -0.34,1 -0.64,1.93 -0.9,2.78 -0.26,0.86 -0.46,1.57 -0.6,2.13 -0.15,0.56 -0.15,0.85 -0.02,0.85 0.13,0 0.44,-0.25 0.92,-0.75 0.48,-0.5 1.05,-1.19 1.69,-2.06 0.65,-0.87 1.34,-1.91 2.08,-3.1 0.74,-1.19 1.44,-2.5 2.08,-3.92 v 0.87 z m -8.27,-4.41 c -0.1,0.84 -0.36,1.78 -0.78,2.83 -0.42,1.05 -0.93,2.1 -1.52,3.17 -0.6,1.06 -1.27,2.11 -2.01,3.12 a 31.35,31.35 0 0 1 -2.2,2.71 c -0.73,0.79 -1.43,1.43 -2.11,1.91 -0.68,0.48 -1.26,0.73 -1.74,0.73 -0.35,0 -0.68,-0.08 -0.99,-0.24 a 3.16,3.16 0 0 1 -0.8,-0.58 c -0.23,-0.23 -0.4,-0.44 -0.53,-0.63 -0.13,-0.2 -0.19,-0.34 -0.19,-0.44 0,-0.26 0.06,-0.69 0.17,-1.31 0.11,-0.61 0.25,-1.33 0.41,-2.16 0.16,-0.82 0.35,-1.72 0.56,-2.69 0.21,-0.97 0.41,-1.94 0.58,-2.9 0.18,-0.97 0.34,-1.89 0.48,-2.76 0.14,-0.87 0.25,-1.65 0.31,-2.32 0.16,0.06 0.42,0.18 0.78,0.34 0.35,0.16 0.71,0.33 1.06,0.51 0.35,0.18 0.67,0.35 0.94,0.51 0.27,0.16 0.41,0.27 0.41,0.34 0,0.19 -0.06,0.61 -0.19,1.26 -0.13,0.64 -0.3,1.42 -0.51,2.32 -0.21,0.9 -0.44,1.85 -0.68,2.86 -0.24,1 -0.47,1.94 -0.68,2.81 -0.21,0.87 -0.38,1.62 -0.51,2.25 -0.13,0.63 -0.19,0.99 -0.19,1.09 0,0.48 0.16,0.72 0.48,0.72 0.39,0 0.92,-0.47 1.6,-1.43 0.68,-0.95 1.36,-2.19 2.06,-3.71 0.69,-1.52 1.3,-3.23 1.82,-5.15 0.51,-1.92 0.79,-3.85 0.82,-5.79 0.26,0.03 0.58,0.15 0.97,0.34 0.39,0.19 0.75,0.42 1.09,0.68 0.34,0.26 0.61,0.53 0.82,0.82 0.21,0.29 0.3,0.55 0.27,0.77 z m -16.22,5.28 c 0.23,-0.68 0.4,-1.36 0.53,-2.03 0.13,-0.68 0.2,-1.34 0.2,-1.99 0,-0.48 -0.13,-0.92 -0.39,-1.31 -0.26,-0.39 -0.65,-0.58 -1.16,-0.58 -0.48,0 -0.89,0.16 -1.21,0.48 -0.32,0.32 -0.56,0.72 -0.7,1.18 -0.14,0.47 -0.2,0.97 -0.17,1.5 0.03,0.53 0.15,1.02 0.36,1.45 0.21,0.44 0.53,0.78 0.94,1.04 0.42,0.26 0.95,0.34 1.6,0.24 z m -0.15,0.58 c -0.48,0.13 -1,0.19 -1.55,0.19 -0.55,0 -1.08,-0.07 -1.6,-0.22 a 4.05,4.05 0 0 1 -1.38,-0.68 c -0.4,-0.31 -0.67,-0.72 -0.8,-1.24 -0.55,0.71 -0.99,1.42 -1.33,2.13 -0.34,0.71 -0.61,1.4 -0.8,2.06 -0.19,0.66 -0.32,1.26 -0.39,1.79 -0.06,0.53 -0.1,0.96 -0.1,1.28 0,0.71 0.1,1.29 0.31,1.74 0.21,0.45 0.59,0.68 1.14,0.68 0.52,0 1.07,-0.21 1.67,-0.63 0.6,-0.42 1.19,-0.99 1.77,-1.72 a 20.18,20.18 0 0 0 3.05,-5.4 z m -6.43,-5.62 c 0.16,0 0.38,0.09 0.65,0.27 0.28,0.17 0.54,0.39 0.8,0.65 0.36,-0.68 0.85,-1.25 1.48,-1.72 0.63,-0.47 1.28,-0.72 1.96,-0.75 0.97,-0.06 1.71,0.11 2.23,0.53 0.52,0.42 0.77,1.15 0.77,2.18 0,1.26 -0.19,2.49 -0.58,3.68 0.48,-0.13 0.98,-0.31 1.5,-0.53 0.52,-0.23 1,-0.47 1.45,-0.73 0.45,-0.26 0.85,-0.52 1.19,-0.8 0.34,-0.28 0.59,-0.51 0.75,-0.7 v 0.82 c -0.52,0.48 -1.27,0.97 -2.25,1.45 -0.98,0.48 -1.94,0.86 -2.88,1.11 -0.35,1.13 -0.82,2.21 -1.4,3.24 a 18.06,18.06 0 0 1 -1.89,2.76 c -0.68,0.8 -1.39,1.45 -2.13,1.94 -0.74,0.48 -1.47,0.72 -2.18,0.72 -0.35,0 -0.76,-0.1 -1.21,-0.31 a 4.97,4.97 0 0 1 -1.31,-0.92 c -0.42,-0.4 -0.77,-0.9 -1.06,-1.5 -0.29,-0.6 -0.44,-1.28 -0.44,-2.06 0,-1.07 0.19,-2.16 0.56,-3.27 0.37,-1.12 0.81,-2.12 1.33,-3.03 0.52,-0.9 1.02,-1.64 1.52,-2.2 0.5,-0.56 0.88,-0.85 1.14,-0.85 z M 70.08,99.25 c 0.13,-0.68 0.12,-1.11 -0.02,-1.31 -0.15,-0.19 -0.34,-0.2 -0.58,-0.02 -0.24,0.18 -0.5,0.5 -0.77,0.97 -0.27,0.47 -0.49,1.04 -0.65,1.72 -0.06,0.35 -0.12,0.72 -0.17,1.09 -0.05,0.37 -0.06,0.72 -0.02,1.04 0.03,0.32 0.1,0.6 0.19,0.84 0.1,0.24 0.24,0.41 0.44,0.51 0.36,-0.97 0.67,-1.81 0.94,-2.52 0.27,-0.71 0.49,-1.48 0.65,-2.33 z m -1.35,5.72 c -0.58,1.48 -1.32,2.98 -2.23,4.5 -0.9,1.52 -1.81,2.88 -2.74,4.09 -0.92,1.21 -1.77,2.19 -2.56,2.95 -0.79,0.76 -1.35,1.14 -1.67,1.14 -0.16,0 -0.37,-0.06 -0.63,-0.17 -0.26,-0.11 -0.51,-0.25 -0.75,-0.41 -0.24,-0.16 -0.46,-0.35 -0.65,-0.58 -0.19,-0.23 -0.29,-0.47 -0.29,-0.73 0,-0.23 0.11,-0.73 0.34,-1.52 0.23,-0.79 0.49,-1.65 0.77,-2.59 0.29,-0.94 0.57,-1.82 0.85,-2.66 0.27,-0.84 0.46,-1.4 0.56,-1.69 h -0.1 c -0.35,0.74 -0.82,1.7 -1.4,2.88 -0.58,1.18 -1.21,2.32 -1.89,3.44 -0.68,1.11 -1.38,2.07 -2.11,2.86 -0.73,0.79 -1.4,1.19 -2.01,1.19 -0.29,0 -0.59,-0.07 -0.89,-0.22 a 3.68,3.68 0 0 1 -0.85,-0.56 c -0.26,-0.22 -0.48,-0.47 -0.65,-0.72 -0.18,-0.26 -0.27,-0.5 -0.27,-0.73 0,-0.32 0.08,-0.83 0.24,-1.52 0.16,-0.69 0.36,-1.47 0.6,-2.35 0.24,-0.87 0.52,-1.79 0.82,-2.76 0.31,-0.97 0.59,-1.9 0.85,-2.81 0.26,-0.9 0.48,-1.73 0.65,-2.49 0.18,-0.76 0.28,-1.35 0.31,-1.77 0.16,0.06 0.41,0.19 0.75,0.36 0.34,0.18 0.68,0.37 1.01,0.58 0.34,0.21 0.63,0.41 0.87,0.6 0.24,0.19 0.36,0.34 0.36,0.44 0,0.26 -0.08,0.68 -0.24,1.28 -0.16,0.6 -0.37,1.29 -0.63,2.08 -0.26,0.79 -0.52,1.63 -0.8,2.52 -0.27,0.89 -0.54,1.74 -0.8,2.56 -0.26,0.82 -0.47,1.57 -0.63,2.23 -0.16,0.66 -0.24,1.17 -0.24,1.52 0,0.49 0.14,0.73 0.44,0.73 0.26,0 0.69,-0.39 1.28,-1.16 0.6,-0.78 1.28,-1.83 2.06,-3.15 0.77,-1.32 1.58,-2.85 2.42,-4.57 0.84,-1.73 1.63,-3.56 2.37,-5.5 0.13,0.06 0.35,0.16 0.65,0.29 0.31,0.13 0.61,0.27 0.9,0.44 0.29,0.16 0.55,0.31 0.77,0.46 0.23,0.14 0.34,0.27 0.34,0.36 0,0.06 -0.1,0.42 -0.29,1.06 -0.19,0.65 -0.43,1.44 -0.7,2.37 -0.27,0.94 -0.57,1.95 -0.89,3.05 -0.32,1.1 -0.61,2.11 -0.85,3.05 -0.24,0.94 -0.44,1.71 -0.58,2.32 -0.14,0.61 -0.19,0.92 -0.12,0.92 0.13,0 0.5,-0.35 1.11,-1.06 0.61,-0.71 1.32,-1.63 2.13,-2.76 0.81,-1.13 1.62,-2.39 2.44,-3.78 0.82,-1.39 1.51,-2.78 2.06,-4.16 a 9.71,9.71 0 0 1 -1.06,-0.46 c -0.36,-0.18 -0.69,-0.39 -0.99,-0.65 -0.31,-0.26 -0.56,-0.57 -0.75,-0.92 -0.19,-0.36 -0.29,-0.76 -0.29,-1.21 0,-0.55 0.07,-1.12 0.22,-1.72 0.15,-0.6 0.37,-1.14 0.68,-1.62 0.31,-0.48 0.69,-0.88 1.14,-1.19 0.45,-0.31 1,-0.46 1.64,-0.46 0.58,0.03 1.06,0.22 1.45,0.56 0.39,0.34 0.53,0.85 0.43,1.53 -0.13,0.84 -0.34,1.74 -0.65,2.71 -0.31,0.97 -0.65,1.94 -1.04,2.9 0.55,0.1 1.06,0.14 1.55,0.12 0.48,-0.02 0.81,-0.04 0.97,-0.07 0.19,-0.03 0.44,0.06 0.72,0.29 0.29,0.23 0.56,0.47 0.8,0.75 0.24,0.27 0.45,0.55 0.63,0.82 0.18,0.28 0.27,0.44 0.27,0.51 0,0.13 -0.1,0.47 -0.31,1.02 -0.21,0.55 -0.46,1.19 -0.75,1.94 -0.29,0.74 -0.6,1.52 -0.92,2.32 -0.32,0.81 -0.61,1.55 -0.87,2.23 -0.26,0.68 -0.45,1.24 -0.58,1.69 -0.13,0.45 -0.13,0.68 0,0.68 0.22,0 0.7,-0.37 1.43,-1.11 0.73,-0.74 1.5,-1.64 2.32,-2.69 a 86.79,86.79 0 0 0 2.4,-3.22 c 0.77,-1.1 1.34,-2.01 1.69,-2.76 v 0.87 c -0.19,0.35 -0.51,0.85 -0.94,1.5 -0.44,0.65 -0.93,1.36 -1.48,2.13 -0.55,0.77 -1.14,1.56 -1.77,2.35 -0.63,0.79 -1.24,1.51 -1.82,2.16 -0.58,0.64 -1.13,1.18 -1.65,1.6 -0.51,0.42 -0.93,0.63 -1.26,0.63 -0.16,0 -0.39,-0.03 -0.68,-0.1 -0.29,-0.07 -0.59,-0.17 -0.9,-0.31 -0.31,-0.15 -0.57,-0.33 -0.8,-0.54 a 0.977,0.977 0 0 1 -0.34,-0.75 c 0,-0.48 0.18,-1.18 0.53,-2.08 0.35,-0.9 0.78,-1.89 1.28,-2.95 0.5,-1.07 1.02,-2.13 1.55,-3.2 0.53,-1.06 0.98,-2.02 1.33,-2.85 -0.16,-0.1 -0.52,-0.16 -1.09,-0.17 -0.56,-0.02 -1.1,-0.06 -1.62,-0.12 z M 47.58,95.38 c 0.26,-0.77 0.46,-1.45 0.61,-2.03 0.15,-0.58 0.3,-1.06 0.46,-1.45 -0.29,-0.06 -0.61,-0.11 -0.97,-0.15 -0.36,-0.03 -0.66,-0.05 -0.92,-0.05 -1.06,0 -2.18,0.29 -3.34,0.87 a 12.83,12.83 0 0 0 -3.2,2.28 c -0.97,0.93 -1.76,2 -2.37,3.2 -0.61,1.19 -0.92,2.42 -0.92,3.68 0,0.64 0.15,1.1 0.46,1.36 0.31,0.26 0.7,0.39 1.19,0.39 0.68,0 1.38,-0.12 2.11,-0.36 0.73,-0.24 1.4,-0.52 2.03,-0.82 0.63,-0.31 1.14,-0.58 1.55,-0.82 0.4,-0.24 0.64,-0.36 0.7,-0.36 0.16,0 0.33,0.13 0.51,0.39 0.18,0.26 0.35,0.69 0.51,1.31 -1.52,0.52 -3.06,1.25 -4.65,2.2 -1.58,0.95 -3.02,2.06 -4.33,3.32 -1.3,1.26 -2.37,2.64 -3.19,4.14 -0.82,1.5 -1.23,3.06 -1.23,4.67 0,0.33 0,0.73 0.02,1.23 0.02,0.5 0.14,0.99 0.39,1.45 0.24,0.47 0.62,0.87 1.14,1.21 0.52,0.34 1.29,0.51 2.32,0.51 1.26,0 2.47,-0.37 3.63,-1.11 1.16,-0.74 2.19,-1.66 3.1,-2.74 0.9,-1.08 1.64,-2.23 2.2,-3.46 0.56,-1.23 0.88,-2.32 0.94,-3.29 0.03,0 0.2,0.09 0.51,0.27 a 11.172,11.172 0 0 1 1.84,1.38 c 0.27,0.26 0.41,0.49 0.41,0.68 0,0.97 -0.35,1.99 -1.06,3.07 -0.71,1.08 -1.69,2.07 -2.95,2.98 -1.26,0.9 -2.74,1.65 -4.43,2.23 -1.69,0.58 -3.51,0.84 -5.44,0.77 a 10.8,10.8 0 0 1 -2.54,-0.38 c -0.79,-0.23 -1.48,-0.57 -2.08,-1.04 -0.6,-0.47 -1.07,-1.06 -1.43,-1.79 -0.35,-0.73 -0.53,-1.57 -0.53,-2.54 0,-1.74 0.44,-3.3 1.33,-4.67 0.89,-1.37 1.95,-2.57 3.17,-3.61 1.23,-1.03 2.47,-1.9 3.73,-2.59 1.26,-0.7 2.27,-1.24 3.05,-1.62 v -0.05 c -0.19,0.06 -0.39,0.13 -0.58,0.19 -0.36,0.1 -0.73,0.15 -1.11,0.15 -0.19,0 -0.54,-0.03 -1.04,-0.1 -0.5,-0.07 -1.02,-0.2 -1.55,-0.41 -0.53,-0.21 -1.02,-0.54 -1.45,-0.99 -0.44,-0.45 -0.7,-1.06 -0.8,-1.84 -0.19,-1.29 0.02,-2.58 0.63,-3.85 0.61,-1.27 1.44,-2.42 2.47,-3.44 1.03,-1.02 2.2,-1.83 3.51,-2.44 1.31,-0.61 2.57,-0.92 3.8,-0.92 1.52,0 2.65,0.13 3.41,0.39 0.76,0.26 1.27,0.51 1.53,0.78 0.22,-0.65 0.39,-1.13 0.51,-1.45 0.11,-0.32 0.22,-0.61 0.32,-0.87 0.13,0.1 0.34,0.23 0.63,0.41 0.29,0.18 0.59,0.36 0.89,0.56 0.31,0.2 0.57,0.38 0.8,0.56 0.23,0.18 0.34,0.31 0.34,0.41 0,0.13 -0.06,0.39 -0.17,0.8 -0.11,0.4 -0.26,0.87 -0.44,1.4 -0.18,0.53 -0.37,1.11 -0.58,1.72 -0.21,0.61 -0.41,1.21 -0.6,1.79 -0.13,-0.03 -0.35,-0.11 -0.65,-0.22 -0.31,-0.11 -0.62,-0.24 -0.95,-0.39 -0.32,-0.15 -0.6,-0.3 -0.85,-0.46 -0.24,-0.16 -0.36,-0.29 -0.36,-0.39 z m 48.07,-5.45 v 3.37 c 0,0.5 0.23,0.75 0.68,0.75 0.12,0 0.23,-0.02 0.33,-0.05 v -0.51 c -0.05,0.02 -0.11,0.03 -0.17,0.03 A 0.28,0.28 0 0 1 96.31,93.46 0.199,0.199 0 0 1 96.24,93.3 v -3.36 h -0.58 z m -2.16,1.87 v 1.41 c 0,0.27 -0.08,0.49 -0.24,0.66 -0.16,0.18 -0.38,0.26 -0.64,0.26 -0.26,0 -0.47,-0.08 -0.61,-0.24 -0.14,-0.16 -0.21,-0.43 -0.21,-0.8 0,-0.66 0.37,-0.98 1.11,-0.95 v -0.31 c 0,-0.29 -0.08,-0.44 -0.25,-0.44 -0.1,0 -0.2,0.02 -0.3,0.06 L 92.11,91 92.58,90.86 c 0.61,-0.01 0.92,0.31 0.92,0.96 z m -0.6,0.86 h -0.52 v 0.55 c 0.01,0.25 0.1,0.37 0.26,0.37 0.17,0 0.26,-0.12 0.26,-0.37 z m -4.07,1.39 v -3.13 h 0.59 v 3.13 z m 0,-3.66 v -0.58 h 0.59 v 0.58 z m -4.07,2.77 v -1.38 c 0,-0.28 0.07,-0.5 0.23,-0.67 0.16,-0.18 0.37,-0.27 0.65,-0.27 0.28,0 0.48,0.09 0.63,0.26 0.14,0.16 0.21,0.38 0.21,0.66 v 0.25 h -0.6 v -0.25 c 0,-0.24 -0.09,-0.37 -0.25,-0.37 -0.16,0 -0.26,0.12 -0.26,0.37 v 1.39 c 0,0.29 0.09,0.44 0.25,0.44 0.12,0 0.19,-0.05 0.23,-0.14 0.02,-0.05 0.03,-0.15 0.03,-0.3 v -0.24 h 0.6 v 0.26 c 0,0.65 -0.29,0.97 -0.87,0.97 -0.27,0 -0.49,-0.1 -0.63,-0.28 -0.14,-0.18 -0.2,-0.4 -0.2,-0.68 z m -4.03,0.89 v -3.13 h 0.59 v 0.34 c 0.22,-0.26 0.44,-0.39 0.66,-0.39 0.27,0 0.41,0.19 0.41,0.55 v 2.62 H 81.8 v -2.36 c 0,-0.16 -0.05,-0.25 -0.16,-0.25 -0.1,0 -0.21,0.08 -0.34,0.23 v 2.38 h -0.59 z m -4.16,-0.89 v -1.41 c 0,-0.27 0.08,-0.49 0.24,-0.66 0.16,-0.17 0.37,-0.26 0.64,-0.26 0.27,0 0.47,0.08 0.61,0.24 0.14,0.16 0.21,0.43 0.21,0.8 0,0.66 -0.37,0.98 -1.1,0.95 v 0.31 c 0,0.29 0.08,0.44 0.25,0.44 0.1,0 0.2,-0.02 0.3,-0.06 l 0.23,0.46 -0.47,0.14 c -0.61,0.01 -0.92,-0.31 -0.92,-0.96 z m 0.6,-0.86 h 0.51 v -0.55 c -0.01,-0.24 -0.1,-0.36 -0.25,-0.36 -0.17,0 -0.26,0.12 -0.25,0.36 v 0.55 z m -2.83,1.75 v -4.24 h -0.59 v 1.37 c -0.16,-0.2 -0.33,-0.29 -0.51,-0.29 -0.38,0 -0.57,0.26 -0.57,0.79 v 1.74 c 0,0.46 0.18,0.69 0.53,0.69 0.22,0 0.4,-0.09 0.55,-0.28 v 0.24 h 0.59 z m -0.59,-0.6 c -0.09,0.1 -0.18,0.14 -0.27,0.14 -0.14,0 -0.21,-0.09 -0.21,-0.28 v -1.62 c 0,-0.22 0.08,-0.32 0.24,-0.32 0.08,0 0.16,0.04 0.24,0.12 v 1.95 z m -4.11,0.6 v -3.13 h 0.59 v 3.13 z m 0,-3.66 v -0.58 h 0.59 v 0.58 z m -4.07,2.81 0.56,-0.13 c 0.05,0.34 0.17,0.51 0.38,0.51 0.18,0 0.27,-0.09 0.27,-0.28 0,-0.17 -0.2,-0.4 -0.61,-0.7 -0.36,-0.27 -0.54,-0.58 -0.54,-0.91 0,-0.25 0.08,-0.46 0.23,-0.62 0.16,-0.16 0.36,-0.24 0.62,-0.24 0.26,0 0.44,0.07 0.59,0.22 0.14,0.14 0.22,0.34 0.24,0.59 l -0.55,0.13 c -0.05,-0.26 -0.15,-0.4 -0.31,-0.4 -0.16,0 -0.25,0.09 -0.25,0.28 0,0.13 0.14,0.31 0.41,0.53 0.06,0.04 0.12,0.09 0.17,0.14 0.19,0.15 0.32,0.29 0.4,0.4 0.11,0.16 0.17,0.34 0.17,0.54 0,0.26 -0.08,0.47 -0.24,0.62 -0.16,0.15 -0.37,0.23 -0.63,0.23 -0.26,0 -0.48,-0.09 -0.65,-0.27 -0.15,-0.16 -0.24,-0.38 -0.28,-0.66 z m -3.97,-0.04 v -1.41 c 0,-0.27 0.08,-0.49 0.24,-0.66 0.16,-0.17 0.37,-0.26 0.64,-0.26 0.27,0 0.47,0.08 0.61,0.24 0.14,0.16 0.22,0.43 0.22,0.8 0,0.66 -0.37,0.98 -1.1,0.95 v 0.31 c 0,0.29 0.08,0.44 0.25,0.44 0.1,0 0.19,-0.02 0.3,-0.06 l 0.23,0.46 -0.47,0.14 C 61.9,94.12 61.59,93.8 61.59,93.15 Z M 62.2,92.3 h 0.51 v -0.55 c -0.01,-0.24 -0.1,-0.36 -0.26,-0.36 -0.16,0 -0.25,0.12 -0.25,0.36 z m -3.92,1.75 v -3.13 h 0.59 v 0.43 c 0.15,-0.31 0.36,-0.46 0.62,-0.46 h 0.06 v 0.65 A 0.38,0.38 0 0 0 59.36,91.5 c -0.33,0 -0.49,0.17 -0.49,0.51 v 2.05 h -0.59 z m 51.61,32.01 v -1.99 c 0,-0.3 0.08,-0.54 0.24,-0.71 0.17,-0.18 0.4,-0.27 0.7,-0.27 0.58,0 0.86,0.33 0.86,1 v 0.35 h -0.58 v -0.41 c 0,-0.27 -0.1,-0.4 -0.31,-0.4 -0.21,0 -0.31,0.13 -0.31,0.4 v 2.16 c 0,0.27 0.1,0.4 0.31,0.4 0.21,0 0.31,-0.13 0.31,-0.4 v -0.61 h -0.36 v -0.49 h 0.94 v 1.95 l -0.4,-0.27 c -0.13,0.23 -0.32,0.35 -0.58,0.35 -0.55,0 -0.82,-0.36 -0.82,-1.08 m -6.3,1.01 v -3.88 h 0.79 l 0.39,2.15 c 0.04,0.17 0.05,0.37 0.05,0.58 0,-0.17 0.02,-0.36 0.05,-0.58 l 0.37,-2.15 h 0.81 v 3.88 h -0.57 v -2.45 c 0,-0.14 0.02,-0.37 0.05,-0.68 0,0 -0.01,0.08 -0.03,0.21 -0.02,0.11 -0.04,0.22 -0.06,0.34 l -0.49,2.57 h -0.3 l -0.46,-2.58 c -0.02,-0.13 -0.05,-0.31 -0.1,-0.55 0.03,0.29 0.04,0.51 0.04,0.68 v 2.45 h -0.55 z m -5.09,-1.22 v -0.41 h 1.27 v 0.41 z m -5.53,0.24 0.57,-0.09 c 0.02,0.38 0.15,0.58 0.4,0.58 0.11,0 0.2,-0.04 0.27,-0.11 0.07,-0.07 0.1,-0.16 0.1,-0.27 0,-0.2 -0.16,-0.46 -0.49,-0.78 l -0.06,-0.06 c -0.25,-0.25 -0.41,-0.44 -0.5,-0.56 -0.16,-0.23 -0.24,-0.46 -0.24,-0.7 0,-0.27 0.09,-0.5 0.26,-0.69 0.17,-0.19 0.4,-0.28 0.67,-0.28 0.27,0 0.48,0.09 0.64,0.28 0.15,0.17 0.23,0.4 0.25,0.68 l -0.58,0.08 c -0.02,-0.32 -0.13,-0.48 -0.33,-0.48 -0.21,0 -0.32,0.12 -0.32,0.36 0,0.23 0.19,0.52 0.56,0.88 0,0 0.02,0.02 0.03,0.04 0.23,0.22 0.39,0.41 0.47,0.54 0.13,0.21 0.2,0.43 0.2,0.69 0,0.28 -0.09,0.51 -0.26,0.69 -0.17,0.19 -0.39,0.28 -0.67,0.28 -0.31,0 -0.55,-0.1 -0.73,-0.31 -0.16,-0.19 -0.25,-0.44 -0.26,-0.76 z m -4.71,-0.41 h 0.46 l -0.2,-1.62 h -0.04 z m -0.79,1.39 0.64,-3.88 h 0.78 l 0.64,3.88 h -0.61 l -0.12,-0.84 h -0.6 l -0.12,0.84 h -0.59 z m -5.53,0 v -3.88 h 0.53 l 0.76,2.32 c 0.03,0.09 0.07,0.23 0.12,0.41 -0.05,-0.26 -0.07,-0.43 -0.07,-0.52 v -2.21 h 0.56 v 3.88 h -0.56 l -0.73,-2.14 v -0.03 c -0.06,-0.15 -0.1,-0.28 -0.12,-0.38 0.05,0.28 0.07,0.46 0.07,0.54 v 2.03 h -0.56 z m -5.31,0 v -3.88 h 1.56 v 0.56 h -0.96 v 1.02 h 0.69 v 0.56 h -0.69 v 1.16 h 0.96 v 0.58 z m -5.12,0 v -3.88 h 1.56 v 0.56 h -0.96 v 1.02 h 0.69 v 0.56 h -0.69 v 1.74 z m -3.62,0 0.04,-0.58 h -0.56 c -0.21,0 -0.31,-0.11 -0.31,-0.33 v -2.96 h -0.6 v 2.85 c 0,0.35 0.06,0.61 0.17,0.78 0.12,0.17 0.3,0.26 0.52,0.25 l 0.73,-0.02 z m -6.41,-1.39 h 0.46 l -0.2,-1.62 h -0.03 l -0.22,1.62 z m -0.79,1.39 0.64,-3.88 h 0.78 l 0.63,3.88 h -0.61 l -0.12,-0.84 h -0.6 l -0.13,0.84 z"
       class="st1"
       id="path1" />
    <path
       d="m 100.62,85.06 1.25,0.02 c 0.53,0.02 0.88,0.16 1.04,0.17 0.27,0.02 0.21,-0.13 0.89,-0.12 1.28,0.03 6.39,0.22 7.04,-0.18 -0.21,-0.51 -0.51,-0.35 -1.8,-0.3 -1.96,0.08 -3.76,0.19 -5.71,-0.03 -0.1,-0.68 -0.1,-1.37 -0.09,-2.06 0,-1.25 -0.16,-1.1 0.55,-1.69 0,-0.28 0.02,-0.61 -0.1,-0.87 -0.17,-0.35 0.03,-0.07 -0.26,-0.27 -0.38,-0.27 -0.09,0.2 -0.17,-0.09 -0.01,-0.04 -0.06,-0.02 -0.13,-0.04 l 0.22,-8.36 0.04,-0.89 0.65,-0.07 h 0.66 l 0.27,-0.54 c -0.5,-0.21 -0.67,-0.12 -1.34,-0.1 l -1.95,-0.04 c -0.93,0.1 -0.27,-0.08 -0.66,0.28 0.16,0.11 0.23,0.15 0.47,0.28 l 1.31,0.11 v 0.66 h -1.23 c -0.59,0.08 -1.11,0.23 -1.63,0 l -0.62,0.02 c -0.44,-0.04 -0.73,-0.19 -1.16,-0.16 -0.62,0.04 -0.69,0.17 -1.36,-0.01 -1.2,-0.07 -2.99,-0.02 -4.12,-0.18 -0.69,-0.1 -0.31,0 -0.59,-0.25 0.48,-0.56 3.87,-0.07 4.74,-0.17 L 99.12,70.21 99,69.4 93.34,69.27 92.59,69.2 c -0.46,0.04 -1.05,0.04 -1.47,-0.07 L 91.1,68.65 c 0.78,0 -0.03,0.09 0.66,0.14 1.02,0.07 -0.22,-0.24 0.91,-0.18 l -0.06,-0.67 -0.12,-7.11 c 0.59,-0.04 1.62,-0.1 2.01,0.18 1.65,-0.23 4.56,0.24 6.39,0.31 0.72,0.03 1.44,-0.07 2.15,0.01 l -0.37,6.69 c -0.25,0.25 0.25,0.11 -0.61,0.28 0.34,0.52 -0.15,-0.02 0.28,0.42 0.56,0.02 0.48,0.19 0.9,0.18 0.55,0 0.02,-0.15 0.85,-0.19 0.3,0.52 -0.13,0.3 0.39,0.79 0.24,-0.32 0.22,-0.16 0.2,-0.66 l -0.24,-0.67 -0.92,0.09 c 0.2,-0.69 -0.02,-2.39 0,-3.38 0.12,-5.35 0.29,-3.24 2.33,-3.72 0.43,-1.81 -0.46,-1.55 -0.87,-1.75 -0.04,-0.72 0.02,-1.47 -0.12,-2.18 -0.29,-1.43 -0.83,0.4 -0.77,-1.47 l 0.4,-0.07 h 0.1 c 0.15,-0.02 0.22,0 0.39,-0.05 0.25,-0.06 0.51,-0.2 0.82,-0.28 -0.2,-0.66 -0.15,-1.24 -0.69,-1.54 -1.38,-0.76 -1.82,1.2 -1.98,-2.42 -0.02,-0.55 0.24,-1.55 0.38,-2.14 1.53,-0.13 1.45,0.41 2.26,-0.52 0.1,-0.62 0.15,-0.59 -0.12,-1.09 l -0.68,-0.7 -2,-0.22 c 0,0 0.03,-0.07 0.03,-0.09 0.28,-0.74 -0.04,-0.35 -0.11,-1.09 0.62,0.09 0.75,0.33 1.13,-0.02 -0.54,-0.56 -0.65,0.09 -1.49,-0.83 -0.02,0.03 -0.04,0.07 -0.05,0.09 -0.01,0.01 -0.04,0.06 -0.06,0.08 -0.38,0.38 0.38,-0.17 -0.14,0.13 -0.29,0.16 -0.87,0.06 -1.23,0.03 0.41,-0.05 0.43,-0.24 0.49,-0.62 -0.29,-0.2 -0.19,-0.21 -0.67,-0.24 -0.43,0.39 -0.13,0.28 -0.45,0.82 l -5.19,-0.03 c 0,0 0.02,-0.04 0.02,-0.05 0.07,-0.16 0.16,-0.25 0.1,-0.48 -0.05,-0.17 0.08,-0.29 -0.48,-0.27 -0.23,0.01 -0.48,0.12 -0.6,0.29 l -0.16,0.5 c -1.79,-0.02 -6.89,-0.32 -8.02,-0.14 0.18,-0.18 0.34,-0.24 0.28,-0.65 -0.17,-1.18 -1.92,-0.29 -1.2,0.65 -1.01,-0.11 -2.68,0.04 -3.84,0.02 C 81,44.14 81.49,45.41 81.3,44.6 81.21,44.21 80.57,43.73 80.34,44.27 l -0.07,0.38 -4.97,0.14 -0.28,-0.53 c -0.59,-0.81 -0.91,-0.42 -0.81,0.55 l -1.67,-0.13 c 0.37,-0.38 0.81,-0.96 0.19,-1.61 -0.62,-0.4 -1.81,0.37 -1.61,1.16 0.17,0.66 -0.05,0.09 0.26,0.32 0.07,0.05 0.19,0.14 0.21,0.11 0.02,-0.03 0.08,0.02 0.11,0.05 l -2.71,-0.07 c -0.74,0.02 -0.83,0.05 -1.08,1.09 -0.03,0.13 -0.02,0.12 -0.03,0.26 v 0.18 c -0.02,0.37 0,0.16 -0.06,0.37 l -1.66,0.02 c -0.94,1.67 -0.64,2.04 1.23,2.06 -0.5,0.86 -0.2,0.52 -0.21,1.98 0,0.7 0,1.53 -0.09,2.22 -1.5,0.09 -2.29,0 -2.23,1.87 l 1.21,0.02 c 1.42,1.69 0.11,1.39 -0.52,1.43 -0.07,0.62 0.31,1.48 0.16,2.31 -0.13,0.75 -0.61,0.64 -0.59,1.96 0.41,0.17 0.64,0.28 1.23,0.28 0.12,1.62 -0.12,5.66 0.22,6.88 -0.24,0.23 0.04,0.03 -0.51,0.11 l -0.58,0.19 c 0.16,1 0.35,0.1 0.3,0.69 -0.07,0.84 -0.27,-0.2 -0.25,0.56 0.02,0.63 0.81,0.35 1.22,0.39 0.79,2.1 -0.15,8.17 0.28,9.5 l -0.63,0.23 c 0,0.98 -0.23,0.82 0.02,1.7 0.49,0.07 0.19,-0.17 0.58,-0.01 l 0.09,3.69 c -1.1,0 -3.72,0.15 -4.9,0.44 l -0.2,0.08 c 0.55,0.47 2.02,0.16 2.89,0.06 2.95,-0.34 1.81,0 2.61,0.48 0.63,-0.72 0.2,-0.59 2.83,-0.54 0.09,0.58 0,0.41 0.36,0.69 0.26,-0.34 0.02,-0.02 0.18,-0.39 l 0.12,-0.32 c 1.37,0.08 2.85,-0.19 4.04,0.04 0.38,0.07 1.08,-0.13 1.64,-0.09 1.05,0.07 0.95,0 1.74,0.41 0.37,-0.35 0.77,-0.28 1.18,-0.25 0.68,0.07 0,0.05 0.58,-0.1 2.38,-0.63 7.72,0.26 10.63,-0.03 1.21,-0.12 8.73,0.16 9.78,0.02 m -28.11,-40.95 -0.6,0.1 c 0.28,-0.75 -0.2,-0.82 0.75,-0.9 z m -2.84,1.05 c -0.19,0.15 0.37,0.25 -0.57,0.26 -0.44,0 -0.23,-0.11 -0.29,-0.26 0.09,-0.08 0.07,-0.21 0.38,-0.23 0.85,-0.07 0.2,-0.02 0.47,0.23 z m 2.18,0.14 c -0.11,0.05 -1.51,0.44 -1.83,-0.14 0.23,-0.13 1.59,-0.36 1.83,0.14 z m 2.49,0 c -0.36,0.26 -1.69,0.22 -2.04,0 0.24,-0.16 -0.31,-0.16 0.4,-0.25 0.43,-0.06 1.36,0.01 1.64,0.25 z m 0.37,0 c 0.2,-0.16 -0.28,-0.05 0.38,-0.17 h 2.4 c 0.64,0.02 0.49,0.03 0.69,0.17 -0.31,0.46 -3.24,0.34 -3.47,0 z m 4.02,0 c 0.34,-0.16 0.38,-0.12 0.85,-0.13 0.52,-0.01 0.56,-0.05 0.87,0.13 -0.28,0.18 -0.18,0.18 -0.88,0.21 h -0.56 c -0.44,-0.1 -0.03,0.05 -0.29,-0.2 z m 2.14,0 c 0.33,-0.19 1.24,-0.33 1.7,0 -0.25,0.16 -0.15,0.21 -0.9,0.2 -0.09,0 -0.47,-0.03 -0.54,-0.04 -0.33,-0.08 -0.09,-0.01 -0.26,-0.16 z m 2.12,0 c 0.26,-0.2 0.17,-0.19 0.66,-0.18 0.45,0 0.43,0.02 0.66,0.18 -0.32,0.21 -0.99,0.22 -1.31,0 z m 1.73,0 c 0,0 0.08,-0.04 0.11,-0.05 l 0.36,-0.09 c 0,0 0.4,-0.02 0.43,-0.02 0.51,0 0.5,-0.08 0.78,0.15 -0.3,0.21 -0.36,0.16 -0.79,0.18 -0.08,0 -0.5,0 -0.57,-0.01 -0.31,-0.06 -0.19,-0.07 -0.33,-0.16 z m 2.08,0 c 0.36,-0.23 1.13,-0.21 1.41,0 -0.34,0.26 -1.13,0.2 -1.41,0 z m 3.12,0.14 c -0.32,0.14 -0.96,0.12 -1.3,0 0,-0.29 0.3,-0.29 0.65,-0.28 0.55,0 0.53,0 0.66,0.28 z m 0.75,0.13 c -0.5,-0.09 -0.12,-0.02 -0.31,-0.12 0.22,-0.14 -0.24,-0.24 0.73,-0.23 0.31,0 0.5,-0.02 0.75,0.09 -0.07,0.21 0,0.47 -1.17,0.26 z M 92.2,45.5 c 0.31,-0.28 0.28,-0.22 0.8,-0.22 1.05,0 0.6,-0.01 0.73,0.43 -0.29,0 -0.62,0.01 -0.9,0 -0.77,-0.03 -0.48,-0.04 -0.64,-0.21 z m 3.97,0 c -0.35,0.49 -1.81,0.16 -1.98,0.03 0.24,-0.36 -0.19,-0.15 0.49,-0.22 0.06,0 0.48,0.01 0.57,0.02 0.48,0.01 0.62,-0.06 0.92,0.18 z m 1.59,0.3 C 96.1,45.77 96.64,45.79 96.53,45.4 l 1.38,-0.05 c 1.51,-0.06 1.15,0.1 1.22,0.28 -0.33,0.29 -0.71,0.18 -1.37,0.16 z m 1.79,-0.35 c 0.51,-0.19 1.32,-0.13 1.75,0.05 -0.21,0.41 0.22,0.16 -0.44,0.3 -1.22,0.24 -1.33,0.08 -1.31,-0.34 z m 2.16,0.19 c 0.66,-0.51 0.71,-0.08 0.8,0 -0.13,0.1 0.25,0.15 -0.41,0.17 -0.68,0.02 -0.3,-0.09 -0.4,-0.17 z m -13.26,0.42 c 0.37,-0.28 1.01,-0.3 1.37,0 -0.36,0.22 -0.95,0.14 -1.37,0 z m -10.03,0.28 1.98,-0.04 0.04,0.61 -2.02,-0.04 z m 23.27,0 c 0.28,-0.22 -0.52,-0.16 0.41,-0.16 0.4,0 0.34,0.15 0.34,0.21 z M 80.77,46.33 h 1.69 c -0.22,0.79 -0.9,0.6 -1.74,0.51 z m 1.98,0.55 c 0.1,-0.56 -0.01,-0.49 0.39,-0.6 0.32,-0.09 0.64,0.02 0.93,0.11 -0.14,0.73 -0.49,0.49 -1.32,0.49 z m -13.4,-0.45 c 0,0 0.07,0.03 0.11,0.05 -0.11,0.21 -0.07,0.46 -0.65,0.39 -0.37,-0.05 -0.3,0.08 -0.32,-0.45 l 0.74,-0.03 c 0,0 0.09,0.08 0.11,0.04 z m 1.34,-0.18 c 0.47,-0.04 0.72,-0.08 1.2,-0.02 v 0.39 l -1.66,0.15 c -0.63,-0.05 -0.25,-0.04 -0.42,-0.15 0.14,-0.31 -0.25,-0.27 0.88,-0.37 z m 2.93,-0.1 c 0.52,0.03 0.64,-0.01 0.57,0.52 l -1.94,0.03 0.02,-0.57 c 0.43,-0.01 0.92,0 1.35,0.02 z m 4.42,0.26 -0.06,0.41 -3.34,-0.2 c 0,-0.51 -0.06,-0.44 0.64,-0.46 z m 10.28,0.35 c 0.21,-0.23 -0.15,-0.31 0.73,-0.3 0.84,0 0.57,0.01 0.69,0.37 -0.25,0.1 -0.33,0.11 -0.7,0.12 -0.64,0 -0.58,-0.07 -0.72,-0.18 z m -2.78,0.16 c -0.44,0 -0.83,0 -1.13,-0.15 0.08,-0.52 0.19,-0.56 1.78,-0.36 -0.02,0.6 -0.02,0.51 -0.65,0.51 z m 1.66,0.05 c -0.72,-0.02 -0.55,-0.11 -0.64,-0.21 0.12,-0.4 0.23,-0.4 0.81,-0.37 0.71,0.04 0.46,-0.02 0.64,0.39 -0.07,0.05 0.04,0.21 -0.81,0.19 z m 3.81,-0.05 -0.86,-0.15 c 0.19,-0.17 -0.23,-0.29 0.72,-0.29 0.4,0 0.55,0 0.82,0.15 -0.19,0.41 -0.02,0.29 -0.68,0.3 z m 2.6,-0.16 c -0.36,0.31 -1.22,0.18 -1.53,0 0.24,-0.16 -0.34,-0.28 0.9,-0.22 0.59,0.03 0.47,-0.1 0.63,0.22 z m 0.35,0 c 0.21,-0.16 -0.05,-0.08 0.29,-0.16 0.12,-0.03 1.46,-0.11 1.8,0.16 -0.35,0.26 -0.58,0.2 -1.12,0.2 -1.27,-0.01 -0.78,-0.04 -0.97,-0.2 z m 5.63,0 c 0.45,-0.16 1.34,-0.07 1.72,0.07 -0.48,0.11 -1.31,0.22 -1.72,-0.07 z m 2.11,0.14 c 0.16,-0.15 -0.06,-0.17 0.38,-0.15 0.57,0.02 0.19,0.08 0.3,0.22 l -0.67,-0.07 z m -29.69,0.86 c 0.18,-0.16 0.25,-0.22 0.32,-0.68 l 1.82,0.02 c 0.2,0.25 0.25,0.51 0.4,0.75 0.39,-0.56 -0.03,-0.34 0.16,-0.74 0.73,-0.06 1.26,0 1.97,0.05 1.75,0.15 0.96,0.02 1.67,0.42 0.3,-0.48 -0.19,-0.26 0.69,-0.32 l 4.65,0.04 c 0.64,0.02 1.17,-0.08 1.83,0 l 1.53,0.04 c 3.55,-0.17 9.06,0.09 12.78,0.02 1.48,-0.03 0.3,-0.16 1.64,0.11 0.37,0.07 4.07,-0.5 3.89,0.86 -0.35,0.2 -0.77,0.12 -1.2,0.1 -2.84,-0.13 -4.49,0.34 -8.73,-0.06 -2.37,-0.22 -5.75,0.17 -9.93,-0.19 -1.39,-0.12 -3.37,0.18 -4.92,0.17 -3.69,-0.02 -6.21,-0.21 -9.82,-0.28 -0.84,-0.01 -1.69,-0.02 -2.53,-0.06 -0.39,-0.01 -0.81,-0.02 -1.2,-0.04 -0.94,-0.05 -0.73,-0.2 -0.78,-0.37 0.41,-0.52 2.19,-0.43 2.86,-0.33 l 0.47,0.08 c 0,0 0.14,-0.05 0.16,-0.06 0.82,-0.24 1.08,-0.14 2.02,-0.17 0.05,0.08 0.09,0.12 0.17,0.31 0.02,0.05 0.06,0.26 0.08,0.33 z m -2.63,0.99 c 1.46,-0.31 6.6,0.11 8.52,0.07 1.54,-0.03 2.53,-0.15 4.1,0 5.01,0.46 7.91,0.01 12.46,0.09 2.67,0.04 5.45,0.15 8.2,0.26 l -0.09,4 0.19,0.84 c -1.12,-0.11 -6.06,-0.16 -6.54,-0.55 -0.7,0.07 -2.32,-0.09 -3.28,-0.08 -0.99,0.02 -2.08,-0.09 -3.08,-0.13 -2.1,-0.09 -4.24,-0.26 -6.39,-0.1 -0.54,0.07 -1.06,0.06 -1.62,0.07 H 81 c -0.49,-0.02 -0.5,0.03 -0.8,-0.17 l -10.3,-0.2 h -1.8 c -0.1,-0.29 -0.07,-3.39 -0.19,-4.24 0.58,0.03 1.05,-0.03 1.45,0.17 z m -3.69,5.32 c 0.14,-1.04 0.99,-0.38 1.94,-0.62 1.45,-0.36 0.49,-0.24 2.45,-0.23 5.09,0.03 10.19,0.34 15.43,0.28 3.71,-0.05 11.18,0.4 15,0.71 0.83,0.07 1.66,0.11 2.51,0.19 1.17,0.1 1.91,0.08 2.26,0.38 -0.98,0.67 -3.44,0.14 -4.58,-0.06 l -9.59,-0.75 c -1.89,-0.04 -8.49,0 -10.17,0.17 -1.68,0.18 -15.1,0 -15.26,-0.07 z m 4.35,0.63 c 7.99,-0.03 17.58,-0.07 25.54,0.43 1.37,0.08 2.71,0.25 4.05,0.32 0.8,0.04 3.55,-0.07 4.01,0.31 -0.48,0.6 -3.09,0.11 -4.02,0.09 -4.48,-0.1 -8.83,-0.36 -13.32,-0.37 l -9.82,-0.33 c -1.59,-0.06 -3.54,0.25 -5.03,0.02 -2.54,-0.39 -3.97,0.22 -4.63,-0.36 0.32,-0.24 0.95,-0.13 1.53,-0.12 0.56,0.01 1.12,0 1.68,0 z m -2.5,1.05 c 0.1,-0.4 -0.04,-0.35 0.65,-0.4 l 3.37,0.13 c 1.55,0.09 3.2,0 4.77,0.02 4.23,0.07 26.35,0.59 27.54,1.05 -0.03,0.02 -0.09,0 -0.12,0.06 l -8.78,-0.29 c -3,-0.21 -6.09,-0.21 -9.12,-0.29 -3.1,-0.08 -6.17,-0.15 -9.26,-0.12 -0.94,0 -8.93,-0.1 -9.06,-0.17 z m 6.11,0.73 h 3.34 l -0.98,1.06 -0.94,-0.39 -0.31,1.27 C 74.3,58.06 74.46,57.98 74.28,57.35 74.14,56.85 74,56.76 73.65,56.48 Z M 66.88,58 c 0.46,-0.15 0.09,0.09 0.32,-0.58 0.3,-0.85 1.69,-1.06 2.06,-0.39 0.24,1.23 -0.58,0.76 0.18,1.95 L 68.54,59 c -0.24,-0.44 0,-0.37 -0.32,-0.79 -1.29,-0.1 -0.92,0.7 -1.36,0.86 -0.46,-0.43 -0.4,-1.72 -0.32,-2.43 l 0.79,-0.05 C 67.05,56.92 66.5,57.34 66.88,58 Z m 2.28,-1.5 1.61,0.02 c -0.01,0.41 0.07,2.56 -0.92,2.27 -0.58,-0.16 -0.2,-0.77 -0.17,-1.24 0.03,-0.47 -0.23,-0.67 -0.52,-1.06 z m 11.94,0.1 c 0.96,0.02 0.79,-0.13 1.76,0.87 0.22,0.23 0.03,-0.07 0.18,0.24 -0.37,0.48 -0.6,0.6 -1.41,0.54 z m 2.01,0.18 c 1.08,-0.24 7.46,-0.34 8.26,-0.05 0.26,0.89 -0.49,1.29 -1.32,1.36 -0.33,-0.31 -0.21,-0.32 -0.61,-0.6 -0.25,0.4 0.09,0.86 -2.07,0.77 -0.02,-0.51 0.08,-0.55 0.1,-0.91 0.06,-1.25 -0.43,0.23 -2.22,-0.47 -0.25,0.59 -0.27,1.09 -1.07,0.97 -0.87,-0.13 -0.43,-0.58 -1.07,-1.07 z m 9.03,-0.06 6.88,0.28 c -0.25,0.48 -0.6,0.86 -1.27,0.93 -0.26,-0.59 0.27,-0.48 -0.4,-0.8 -0.5,0.69 0.09,1.06 -0.81,1.5 -0.65,0.32 -1.28,0.27 -1.89,0.04 -0.39,-0.77 0.06,-0.98 -0.29,-1.47 -0.39,0.25 -0.47,0.51 -1.1,0.6 l -1.13,-1.08 z m 7.4,0.34 1.92,0.08 c -0.26,0.37 -1.96,1.62 -1.92,-0.08 z m -12.48,1.35 c 0.51,0.27 0.86,0.19 1.55,0.14 0.46,-0.06 0.66,-0.23 1,-0.24 1.25,-0.05 1.2,0.7 2.25,-1.23 1.57,0.61 0.43,1.08 1.77,1.06 l 0.62,0.54 c 0,0 0.07,0.01 0.09,0.05 L 94.76,59 c 0.89,0.44 1.7,0.09 2.43,-0.36 0.51,-0.64 0.97,-0.09 1.84,-0.92 0.02,0.02 0.06,0.03 0.07,0.07 0,0.04 0.05,0.06 0.06,0.07 0.25,0.23 -0.01,0.04 0.22,0.19 0.84,0.57 0.96,-0.2 1.92,0.31 0.59,0.31 0.7,0.24 1.41,0.08 1.12,-0.24 0.32,-0.06 1.05,0.23 0.2,-1.58 -1.32,-0.15 -2.28,-0.6 0.05,-0.5 0.34,-0.59 0.65,-0.9 l 2.23,0.06 c 0.3,0.85 0.2,1.42 0.08,2.28 l -0.65,0.04 -3.96,-0.04 c 0,0 -0.86,-1.37 -1.77,-0.36 l -0.19,0.26 c -1.67,-0.03 -3.59,0.07 -5.19,-0.16 l -0.25,-0.6 -1.36,0.05 -0.14,0.46 -5.25,-0.15 -0.2,-0.45 c -0.47,-0.36 -0.56,-0.15 -1.07,-0.1 l -0.2,0.58 -3.69,-0.1 c -0.08,-0.23 -0.18,-0.43 -0.27,-0.6 h -1.01 l -0.2,0.55 -4.09,0.04 0.2,-0.54 0.13,-0.75 c 0.62,0.1 1.06,0.2 1.16,0.65 0.21,0.07 0.49,0.21 0.74,0.22 0.63,0.03 0.42,0.01 0.53,-0.32 l -1.18,-0.43 c 0.21,-0.6 0.52,-0.88 1.2,-0.95 1.23,-0.12 0.98,0.22 1.41,0.69 0.5,-0.3 0.76,-0.79 1.4,-0.85 0.51,0.45 0.54,0.75 0.63,1.61 0.21,0.21 0.3,0.39 0.73,0.43 0.44,0.04 0.78,-0.14 1.12,-0.26 0.09,-0.26 0.11,-0.23 0.27,-0.51 1.15,0.16 1.59,0.71 2.1,-0.53 0.97,0.14 1.01,-0.09 1.66,-0.05 l 0.03,1.05 z M 73.28,57.18 c 0.07,-0.33 -0.3,-0.02 0.23,-0.37 0.33,0.14 0.26,0.05 0.44,0.45 0.14,0.29 0.18,0.55 0.18,0.88 l 0.51,0.84 -1.74,-0.03 c -0.6,-0.75 0.22,-0.86 -1.91,-0.65 0.05,-0.74 -0.03,-3.14 2,-0.9 l 0.3,-0.21 z m -5.72,1.66 c 0.79,-0.48 0.38,-0.06 0.49,0 l -0.22,0.12 C 67.4,58.92 67.8,59.03 67.56,58.84 Z m 3.62,0 c 0.08,-0.07 0.21,-0.27 0.61,-0.3 0.82,-0.07 0.46,0.06 0.54,0.3 -0.4,0.17 -0.81,0.15 -1.15,0 z m 34.33,1.68 -0.25,0.1 c -0.09,0.02 0.07,0.19 -0.97,0.07 -0.81,-0.09 -0.36,-0.21 -0.93,-0.22 -0.79,-0.01 -1.51,0.08 -2.43,0.03 -4.14,-0.24 -11,-0.84 -14.87,-0.65 -1.06,0.05 -6.57,0.41 -7.41,0.26 -0.74,-0.13 -0.25,-0.05 -1.01,0.04 -1.19,0.15 -11.1,-0.12 -11.55,-0.29 l -0.03,-0.41 c 1.68,0.18 1.85,-0.53 2.27,0.27 l 0.15,-0.11 c 0,0 0.06,-0.04 0.07,-0.05 0.5,-0.3 3.4,-0.21 4.03,-0.23 l 9.69,0.14 c 1.64,0.04 3.15,-0.1 4.77,-0.07 3.03,0.05 6.34,0.25 9.39,0.37 l 8.38,0.25 c 0.51,-0.04 0.56,-0.26 0.68,0.49 z M 79.8,63.21 c -0.39,0.56 -1.06,1.82 -1.24,2.6 -0.12,-0.76 0.15,-1.55 0.1,-2.47 -0.06,-0.97 -0.12,-1.71 -0.08,-2.74 h 1.02 c 0.67,0 0.75,0 1.06,0.26 0,0 -2.38,0.47 -1.55,1.78 0.22,0.36 0.01,0.05 0.3,0.27 0.03,0.02 0.06,0.04 0.09,0.05 0.03,0.02 0.06,0.04 0.08,0.06 0.19,0.14 0.1,0.04 0.23,0.2 z m 1.42,-2.58 2,0.03 -1.92,1.04 c -1.04,0.52 -0.76,1.24 -1.86,0.89 -0.05,-0.53 -0.04,-0.64 0.27,-1 0.4,0.35 0.05,0.23 0.55,0.44 0.48,-0.63 0.02,-1.18 1.32,-0.72 z m 6.33,0.17 0.99,0.05 0.09,0.69 C 87.57,61.22 88.09,61.37 87.55,60.8 Z m -8.51,6.86 c -0.5,-0.41 -0.34,-0.45 -0.14,-1.22 0.13,-0.47 0.19,-0.91 0.38,-1.35 0.74,-1.72 1.6,-2.76 3.26,-3.55 2.45,-1.18 3.96,-0.23 5.55,0.28 1.09,0.35 1.43,0.68 1.94,1.4 0.5,0.71 0.8,1.26 1.1,2.22 0.18,0.58 0.76,2.12 0.36,2.65 -0.81,-0.3 -0.46,-4.32 -3.33,-5.92 -2.36,-1.32 -5.05,-0.7 -6.95,1.3 -2.4,2.52 -1.23,2.63 -2.16,4.19 z M 89.08,60.9 c 0.31,-0.1 2.64,-0.14 3.03,0.05 l 0.06,6.59 C 91.6,65.3 91.41,63.99 89.86,62.42 89.47,62.02 88.7,61.81 89.08,60.9 Z M 75.65,60.7 c 0.77,0.03 1.74,-0.14 2.42,0.07 0.26,0.9 0.16,5.91 -0.19,6.76 -0.8,0.16 -5.83,0.24 -6.45,0.06 l -0.78,-0.03 -1.36,0.03 -1.97,0.11 -0.19,-6.92 8.51,-0.08 z m 13.14,2.52 c 1.34,1.23 1.11,1.88 1.56,3.38 0.12,0.39 0.31,0.59 0.29,0.95 -0.02,0.37 -0.04,0.28 -0.14,0.47 L 90.37,67.83 C 90.3,67.67 90.3,67.67 90.26,67.52 89.81,65.89 88.81,63.69 88.78,63.23 Z m -8.6,6.69 c 0.08,-0.68 -0.04,-0.43 0.33,-0.6 l 0.04,-0.38 c -0.3,-0.4 -0.26,-1.94 -0.02,-2.68 0.22,-0.67 0.9,-1.64 1.25,-2.18 0.42,-0.64 0.87,-1.26 1.72,-1.54 0.76,-0.26 2.43,-0.5 2.99,0.03 0.9,0 1.51,0.53 1.86,1.18 0.31,0.57 0.78,1.48 0.9,2.13 1,1.01 0.59,3.72 0.66,4.28 0.18,1.38 0.19,3.39 0.17,4.84 -0.02,2.65 -0.27,5.06 -0.29,7.45 0,1.28 0.22,2.08 -0.29,2.26 l -3.33,-0.15 h -5.6 L 80.05,71.44 C 79.6,71.31 79.58,70.95 79.53,70.36 v -1.14 c 0,0 -0.02,-0.09 -0.03,-0.12 0,-0.03 0,-0.08 -0.02,-0.12 l -0.84,0.05 c 0.06,0.08 0.49,0.1 0.75,0.34 -0.23,2.08 -0.07,5.54 -0.04,7.73 0.03,2.48 0.15,5.09 0.17,7.46 L 78.58,84.58 78.5,80.6 c 0.86,-0.57 0.63,-0.62 0.34,-1.66 -0.17,-0.59 -0.05,-1.7 -0.05,-2.41 0,-0.91 -0.13,-1.44 -0.19,-2.27 -0.06,-0.9 0.02,-1.77 -0.06,-2.68 V 70.9 l -0.05,-0.41 c -0.05,-0.26 -0.07,-0.67 -0.07,-0.99 0,-0.19 -0.01,-0.32 0.04,-0.52 0.01,-0.04 0.03,-0.07 0.04,-0.11 l 0.11,-0.21 c 0,0 0.04,-0.07 0.06,-0.1 -0.51,-0.02 -0.8,0.04 -1.33,0.04 h -0.6 l -0.58,0.05 h -1.33 c -0.85,-0.16 -0.46,0 -1.09,0.02 -0.64,0.02 -0.41,-0.14 -1.09,-0.03 -0.41,0.06 -0.32,0.21 -0.97,0.13 -0.3,-0.04 -0.6,-0.15 -1.02,-0.11 l -0.7,0.03 c -0.51,-0.05 -0.6,0.11 -1.11,0.12 -0.54,0.01 -0.46,-0.11 -1.12,-0.08 l -0.16,-0.08 -0.1,0.82 1.07,-0.11 4.23,-0.06 0.69,-0.02 c 1.15,-0.15 2.83,0.12 3.43,0 0.66,-0.12 0.66,-0.21 1.01,0.2 -0.4,0.53 -1.22,0.25 -2.07,0.29 -0.87,0.04 -1.52,0.01 -2.41,0.08 h -0.66 l -2.96,0.05 -2.28,0.04 -0.07,-1.29 -1.22,0.07 c 0.01,-0.49 -0.09,-0.44 0.43,-0.56 0.37,-0.08 0.74,-0.07 1.1,-0.04 0.5,-0.34 0.96,-0.23 1.61,-0.2 l 1.3,0.04 c 0.6,0.08 0.51,-0.04 0.98,-0.01 0.36,0.02 0.41,0.09 0.99,0.07 0.69,-0.01 1.42,0.08 2.07,0.02 h 1.02 c 0.24,-0.17 0,-0.13 0.56,-0.23 l 1.4,0.07 c 0.32,0.12 0.26,0.08 0.43,0.35 l 0.89,-0.17 0.44,0.01 0.36,0.1 c 0,0 0.09,0.04 0.13,0.06 -0.29,0.44 -0.05,0.19 -0.54,0.3 l 0.25,0.27 c 0.29,0.56 0,1.45 0.24,2.39 l 0.27,-1.28 z m 10.26,0.15 c 0.27,0.13 0.32,-0.31 0.43,1.43 0.13,2.05 0.24,3.46 0.15,5.6 -0.1,2.39 0.1,5.06 -0.22,7.4 -0.43,-0.02 -0.4,0.06 -0.56,-0.39 -0.19,-0.56 0.31,-8.74 0.21,-10.43 -0.04,-0.85 -0.34,-3 -0.02,-3.61 z m -22.8,1.57 0.02,-0.72 v -0.5 l 2.99,-0.12 h 0.65 c 0.12,-0.04 0.06,-0.04 0.34,-0.06 h 3.13 l 1.35,-0.03 h 0.7 l 1.01,-0.02 c 0.01,1.01 0.06,8.45 -0.04,8.77 -1.01,0.28 -1.94,0.1 -2.97,0.06 0.06,-0.52 0.31,-0.74 0.32,-1.24 0.02,-0.72 -0.24,-0.58 -0.53,-0.97 1.57,-1.74 0.18,-1.44 0.5,-3.66 -0.25,-0.45 -0.12,-0.69 -0.18,-1.26 -0.85,-0.55 -0.48,0.19 -0.97,-0.87 h -0.4 l -0.92,0.02 -1.36,0.04 -0.7,-0.05 c -0.4,0.57 -0.4,0.21 -0.46,1.12 -0.05,0.66 -0.15,1.13 -0.03,1.78 0.18,1 -0.16,0.38 -0.45,1.01 -0.22,0.47 0.29,0.57 0.68,0.91 -0.29,0.55 -0.48,-0.45 -0.5,1.01 0,0.27 0,0.21 -0.11,0.45 -0.18,0.37 -0.53,0.39 0.24,1.24 0.16,0.18 0.09,0.05 0.19,0.22 -0.69,0.45 -1.4,0.31 -2.32,0.25 -0.09,-2.21 0.18,-5.32 -0.19,-7.39 z m 28.04,1.25 -0.93,0.36 c 0.06,0.43 0.12,0.5 0.31,0.76 -0.19,0.34 -0.17,0.19 -0.42,0.56 0.08,0.61 0.28,0.41 0.02,0.8 -0.15,-0.42 -0.13,-2.27 -0.08,-2.91 0.09,-1.21 0.04,-0.85 -0.1,-1.09 l -0.24,1.84 c 0.06,1.38 -0.2,5.3 -0.07,5.56 0.23,0.46 0.05,0.12 0.27,0.27 0.29,-0.75 -0.24,-0.35 0.49,-0.78 l 0.18,1.43 -2.65,0.08 c 0.11,-3.19 -0.19,-5.72 -0.34,-8.81 1.12,0 1.58,-0.04 2.65,0.17 0,0.1 0.82,1.32 0.91,1.75 z m 4.32,-1.56 2.69,0.09 c 0.27,1.07 -0.21,6.64 -0.16,8.34 l -1.23,0.02 c -0.43,0 -1.11,0.08 -1.44,-0.12 -0.11,-0.06 -0.29,-0.34 -0.36,-0.45 -0.75,-1.19 0.05,-0.18 0.29,-1.69 0.11,-0.7 0.28,-0.9 0,-1.48 -0.48,-1.01 -0.13,-1.51 -0.32,-2.58 l -0.09,-0.34 c 0,0 -0.02,-0.07 -0.04,-0.1 -0.43,-0.08 0.26,0.6 -0.5,0 0.42,-0.7 0.84,-0.76 -0.33,-1.38 -0.18,-0.09 -0.2,-0.09 -0.3,-0.18 1.43,-0.52 0.53,-0.1 1.8,-0.14 z m -26.63,0.26 c 0.15,0.07 0.44,0.14 0.55,0.23 0.35,0.26 0.22,0.05 0.23,0.53 -0.59,-0.34 -0.65,0 -0.78,-0.76 z m 24.47,5.47 c 0.53,0.52 0.7,0.22 1.25,0.48 0.15,0.34 -0.03,0.39 -0.28,0.67 -1.05,0.03 -1.26,-0.49 -2.04,-0.39 0.28,0.21 0,0.02 0.24,0.22 l 0.4,0.32 c -0.79,0.24 -1.24,0.44 -1.44,1.12 0.55,-0.07 0.87,-0.77 1.29,0 -0.17,0.42 0.57,0.36 -1.68,0.31 -0.01,-0.5 -0.14,-0.55 -0.14,-1.01 0,-0.55 0.17,-0.51 0.07,-1.16 -0.64,0.04 -0.47,0.15 -1,0.37 0.21,-0.74 -0.05,-0.25 0.59,-0.68 l 0.39,-0.31 c 1.3,-1.12 -0.23,-0.65 -0.65,-1.02 0.38,-0.32 0.18,-0.12 0.51,-0.24 L 96,75.41 c -0.19,-0.54 -0.2,-0.52 -0.83,-0.64 0.26,-0.38 0.26,-0.3 0.46,-0.6 L 95.3,73.59 c 0.26,-0.18 0.35,-0.12 0.54,-0.26 l 0.42,-0.62 0.54,0.28 c 0.06,-1.19 -1.15,-0.12 -1.19,-1.35 0.91,-0.52 2.51,0.08 3.18,0.54 -0.21,0.81 -0.48,0.39 -0.56,1.11 -0.08,0.72 0.15,0.54 -0.21,1.28 -0.32,-0.55 -0.61,-0.78 -1.38,-0.91 0.18,0.48 0.35,0.44 0.77,0.61 -0.04,0.73 -0.48,1.05 0.15,1.74 0.54,0.59 0.55,0.09 1.58,0.11 0.07,0.25 0.61,0.98 -0.06,0.82 -0.28,-0.07 -0.98,-0.77 -1.26,0.12 z M 73.48,72.41 c 0.05,0.01 0.35,0.06 0.35,0.06 0.26,0.08 0.16,0.05 0.3,0.12 l -0.22,1.9 c 0.72,0.55 0.67,0.01 0.95,1.04 -0.51,0.23 -0.81,-0.06 -1.24,0.7 0.2,0.53 -0.04,0.05 0.35,0.46 0.12,0.13 0.06,0.06 0.2,0.21 0.17,0.18 0.48,0.44 0.56,0.68 0.04,0.12 0.05,1.45 -1.07,1.46 0.17,-1.12 0.59,-0.69 0.07,-1.97 l -1.22,-0.19 c 0.31,-0.21 0.33,-0.24 0.46,-0.6 l -0.34,-0.21 c -0.5,0.31 -0.18,0.18 -0.56,0.71 l 0.07,0.47 c 0.22,0.04 0.46,0.04 0.74,0.08 0.55,0.06 0.53,-0.13 0.64,0.33 0.08,0.31 -0.26,1.1 -0.41,1.38 l -1.28,0.07 -0.57,0.03 c 0.27,-1.46 0.21,-1.4 -0.75,-2.17 0.06,-0.84 0.24,-0.37 0.32,-1.15 -0.29,-0.35 -0.74,-0.47 -0.77,-0.72 l 0.17,-0.03 c 1.07,-0.13 0.85,0 1.36,0.23 l 0.13,-0.06 C 71.57,74.69 71.68,75.12 71.24,74.7 70.88,74.36 71.12,74.37 70.78,73.83 l 1.28,0.34 0.33,0.64 c 0.5,0.23 0.79,0.16 1.22,-0.07 -0.05,-0.79 -0.16,-0.6 -0.8,-0.87 -0.13,-0.53 0.06,0.26 0.15,-0.58 -0.39,-0.33 -0.24,-0.32 -0.76,-0.53 L 71.47,72.2 c 0.21,-0.33 0.37,-0.79 0.87,-0.82 0.74,-0.05 0.55,0.37 1.13,1.02 z m -3.02,-0.85 c 0.22,0.15 0.45,0.28 0.65,0.69 0.18,0.36 0.11,0.75 0.15,1.23 h -0.88 z m 1.27,2.13 -0.11,-0.87 c 0.6,0.2 0.5,0.16 0.89,0.49 -0.3,0.3 -0.23,0.33 -0.78,0.38 z m 0.85,0.73 c 0.07,-0.06 -0.02,-0.45 0.58,0 -0.34,0.27 -0.26,0.25 -0.58,0 z m 25.09,0.64 0.52,0.08 c 0.17,-0.35 0.37,-0.54 0.51,-0.8 l -0.05,1.2 c -0.5,0.21 -0.44,0.11 -0.76,0.14 l -0.23,-0.62 z m -3.03,2.02 c -0.13,-0.24 -0.11,0.33 -0.11,-0.28 0,-0.63 0.05,-0.27 0.13,-0.39 0.62,0.47 0.07,0.49 -0.02,0.68 z m -24.51,0.65 c 0.4,-0.27 0.52,-0.2 0.87,-0.04 0.19,0.75 0.13,0.92 -0.27,1.33 -0.12,-0.19 -0.02,0.05 -0.1,-0.27 -0.26,-1.1 -0.2,-0.24 -0.5,-1.02 z m 27.3,0.62 0.69,0.15 0.4,1.19 -0.89,0.07 c 0,-0.6 -0.01,-1.07 -0.21,-1.41 z m 1.31,0.5 c 0.11,0.14 0.19,0.08 0.34,0.35 0.34,0.59 0,0.52 -0.01,0.54 -0.29,-0.23 -0.37,-0.38 -0.33,-0.89 z M 75.17,79.9 c -0.44,0.24 -3.05,0.2 -3.91,0.21 -0.83,0 -0.9,-0.02 -1.08,-0.35 0.41,-0.35 3.1,-0.26 3.91,-0.27 0.75,0 1,-0.19 1.08,0.4 z m 0.46,-0.14 c 0.53,-0.33 0.86,-0.11 1.52,-0.18 0.65,-0.07 0.98,-0.25 1.33,0.32 l -2.56,0.03 c -0.39,-0.1 -0.05,0.04 -0.28,-0.18 z m -8.75,0.14 c 0.19,-0.41 -0.17,-0.39 1.59,-0.43 0.81,-0.02 1.38,-0.2 1.35,0.65 -0.5,0.05 -2.12,0.07 -2.63,-0.08 -0.22,-0.06 -0.21,-0.09 -0.31,-0.14 z m 25.55,0.42 0.2,-0.1 c 0.11,-0.03 0.28,-0.06 0.39,-0.07 0.51,-0.03 0.55,0.05 0.71,0.17 -0.06,0.45 0.23,0.56 -0.88,0.18 -0.04,-0.01 -0.08,-0.02 -0.11,-0.03 l -0.21,-0.09 c 0,0 -0.07,-0.03 -0.1,-0.06 z m 1.7,0 c 0.36,-0.28 0.94,-0.15 1.56,-0.15 0.61,0 1.22,0 1.83,-0.01 l 2.1,0.05 c 0.38,0.07 0.35,-0.28 0.29,0.5 -0.44,-0.22 -0.1,-0.23 -0.51,-0.17 -0.05,0.01 -0.18,0.13 -0.62,0.19 l -3.38,0.05 c -0.7,-0.02 -1.1,0.14 -1.26,-0.46 z m 6.2,0 c 0.43,-0.29 1.71,-0.12 2.26,-0.08 0.59,0.05 0.31,-0.08 0.66,0.24 -0.49,0.17 -1.83,0.2 -2.4,0.17 -0.79,-0.04 -0.38,0.11 -0.52,-0.33 z m -3.21,4.16 -0.39,0.08 -1.45,0.02 -0.15,-3.25 4.21,-0.15 c -0.08,1.39 0.27,2.21 0.09,3.5 -0.58,0.03 -1.85,0.05 -2.3,-0.2 z m -26.58,-3.39 -0.26,3.54 -0.48,0.04 -2.11,-0.03 -0.1,-3.77 c 0.56,-0.05 1.09,-0.04 1.59,-0.08 0.64,-0.04 1.19,-0.25 1.36,0.29 z m 32.19,0.4 -0.09,1.71 c 0.16,0.42 0.14,0.86 0.09,1.43 H 99.99 L 99.68,81.2 c 0.6,-0.02 1.31,0.02 1.65,0.04 1.3,0.08 1.23,-0.12 1.4,0.25 z m -8.65,3.12 -1.75,-0.06 -0.08,-3.35 c 0.53,0.04 1.86,0.21 1.92,0.2 z m -19.3,-3.75 c 0.18,1.15 0.07,2.46 0.05,3.69 l -0.6,-0.07 c -0.73,0.42 -2.46,0.15 -3.41,0.11 -0.17,-0.65 0.06,-3.02 0.16,-3.81 l 3.06,-0.11 c 0.58,-0.04 0.49,-0.16 0.74,0.2 z m 0.96,1.12 0.04,-1.48 2.23,0.12 0.02,4.01 c -0.6,0.06 -1.52,0.13 -1.91,-0.16 h -0.45 z"
       class="st0"
       id="path2" />
    <path
       d="m 77.42,62.08 -0.04,-0.34 -8.49,-0.31 h -0.72 c -0.22,0.77 0.43,0.16 0.12,2.44 -0.07,0.54 -0.1,0.85 -0.1,1.42 0,1.6 -0.15,0.49 -0.48,1.22 0.53,0.46 3.02,0.01 4.73,0.09 0.46,0.03 4.72,0 4.79,0 0.48,-0.32 -0.33,-3.19 0.2,-4.53 m -7.42,4.03 -0.87,0.12 c -0.21,-0.84 -0.13,-2.57 -0.05,-3.52 0.08,-0.85 -0.02,-0.75 0.66,-0.73 -0.68,0.49 -0.39,1.17 -0.01,1.88 0.41,0.77 -0.46,1.28 0.27,2.25 z m 3.39,-3.02 c -0.15,0.68 -0.38,1 0.2,1.18 0.46,-0.67 -0.27,-1.07 0.88,-1.74 l 0.16,0.73 0.67,-0.13 0.41,0.09 c 0.25,0.6 0.42,0.85 0.08,1.49 l -0.37,-0.08 c -0.59,-0.28 -0.28,-0.6 -0.96,-1.06 0.05,1.6 0.81,0.67 0.16,1.63 -0.15,0.22 -0.12,-0.06 -0.14,0.29 0.31,0.04 0.91,-0.16 1.23,-0.31 0.93,-0.43 0.72,-1.83 0.03,-2.25 -0.82,-0.49 -0.48,0.18 -0.95,-0.76 l 2.06,0.09 c 0.22,1.26 0.06,2.48 0.05,3.76 l -2.76,0.18 c 0.33,-0.32 0.21,-0.07 0.25,-0.64 -0.77,-0.15 0.04,0.2 -0.92,0.11 -0.62,-0.06 -0.47,-0.12 -1.27,-0.07 -0.88,0.05 -0.01,-0.17 -0.89,-0.3 -0.59,-0.09 -0.64,0.22 -1.19,0.26 -0.13,-1.74 1.1,-1.51 0.15,-2.09 -0.11,0.23 0.02,0.19 -0.13,0.29 -0.43,-0.28 -1.26,-2.15 1.12,-0.88 -0.06,0.69 0.03,0.08 -0.21,0.34 -0.16,0.38 -0.28,0.25 -0.12,0.65 0.35,-0.1 0.13,0 0.39,-0.28 0.05,-0.05 0.25,-0.31 0.3,-0.38 -0.1,-0.76 -0.79,-0.95 -1.52,-1.25 l 4.07,0.18 -0.79,0.96 z m -2.09,2.42 0.41,0.47 c 0.98,0 0.82,-0.31 1.79,0.12 l -3.17,0.05 z m 22.32,-2.88 c -0.14,0.92 -0.2,1.61 -0.22,2.54 -0.01,0.51 -0.02,0.88 -0.1,1.38 -0.08,0.57 -0.12,0.29 0.1,0.82 l 0.94,-0.12 c 7.81,-0.22 7.4,0.77 7.15,-0.97 -0.16,-1.15 0.37,-1.99 0.3,-3.49 -0.21,-0.99 -0.4,-0.56 -1.4,-0.6 l -7.03,-0.1 c 0.11,0.26 0.11,0.25 0.27,0.53 m 0.83,0 0.84,-0.03 c -0.18,0.29 0.02,0.05 -0.28,0.38 -0.64,0.7 -0.25,0.15 -0.62,0.97 l 0.07,-1.32 z m 1.76,1.56 c 0.21,0.56 -0.19,0.29 0.02,1.08 l 0.94,0.02 -0.09,-1.06 c 0.24,-0.17 0.39,-0.26 0.79,-0.29 -0.07,0.43 -0.38,0.71 -0.07,0.86 0.39,0.19 0.25,-0.12 0.81,-0.32 l -0.09,0.98 c 0.36,0.2 -0.04,0.05 0.45,0.14 0.44,-0.75 0.09,-0.99 0.35,-1.79 0.6,0.04 0.85,0.24 0.93,0.82 0.15,0.96 -0.41,0.68 -0.68,1.14 1.23,0.05 1.46,-0.42 0.97,-1.58 -0.27,-0.64 -0.83,-0.85 -1.66,-0.57 v 0.76 C 98.4,64.12 98.41,64.26 98.29,63.7 97.77,63.58 97.44,63.58 96.92,63.79 96.9,63.76 96.88,63.72 96.86,63.7 A 0.47,0.47 0 0 0 96.8,63.61 c -0.01,-0.03 -0.04,-0.07 -0.05,-0.1 -0.22,-0.43 -0.11,-0.43 -0.51,-0.88 5.61,-0.16 5.41,-0.38 4.93,2.14 -0.19,0.98 -0.05,1.22 -0.12,2.09 l -6.8,-0.04 0.09,-2.22 c 0.43,-0.2 -0.22,-0.14 0.27,0.04 0.36,0.13 0.01,0.1 0.14,0.1 0.09,-1.04 0.32,-1.71 1.33,-1.77 0.38,0.46 0.45,0.57 0.16,1.2 z M 95.78,50.26 c -0.01,-0.22 -0.01,-0.18 -0.07,-0.38 -0.09,-0.31 -0.03,-0.13 -0.17,-0.3 -0.3,-0.17 0,0 -0.66,0.01 -0.26,0 -0.57,-0.02 -0.85,-0.02 -0.55,0 -1.24,0.04 -1.77,0.02 -0.59,-0.02 -0.76,-0.6 -0.91,0.11 -0.05,0.26 0.09,1.08 0.08,1.55 -0.02,0.45 -0.27,1.3 -0.01,1.56 0.39,0.4 0.4,0.02 0.52,-0.01 0.59,-0.16 3.32,0.4 3.72,-0.16 z m -1.38,1.25 c 0.28,-0.52 -0.03,-1.23 -0.61,-1.47 0.66,-0.13 0.99,-0.04 1.55,0.15 l -0.18,2.14 -0.45,0.05 c -0.94,0.07 -1.99,0.1 -2.82,-0.15 l 0.02,-2.18 0.95,-0.11 c -0.39,0.56 -1.15,1.11 -0.37,1.95 0.69,0.74 1.45,-0.03 1.91,-0.37 z m -1.44,-0.67 c 0.07,-0.11 0.16,-0.28 0.35,-0.46 l 0.54,0.07 0.2,0.57 c -0.26,0.51 -0.42,0.72 -1.05,0.75 -0.19,-0.16 -0.28,-0.11 -0.35,-0.44 -0.11,-0.55 0.16,-0.43 0.32,-0.49 z M 77.79,49.24 C 77,49.3 76.53,49.42 75.67,49.36 75.04,49.32 74.23,49.1 73.71,49.26 l 0.08,3.34 c 0.59,0.21 3.86,0.08 4.02,-0.07 0.36,-0.5 0.15,-2.61 -0.02,-3.29 m -2.17,0.57 c -0.65,0.18 -1.05,0.37 -1.06,1.15 -0.01,0.92 0.33,0.95 0.78,1.3 l -1.06,-0.02 c -0.13,-1.02 -0.2,-1.5 -0.11,-2.64 l 1.46,0.21 z m 0,0 c 0.45,-0.06 1.54,-0.06 1.93,0.12 0.09,0.64 0.08,1.58 -0.25,2.2 l -0.99,0.06 c 0.99,-0.35 1.64,-1.87 0.16,-2.08 -0.78,-0.11 -0.54,0.1 -0.85,-0.29 m -0.49,1.9 c -0.48,-1.68 0.11,-1.41 1.73,-1.14 -0.02,1.24 -0.63,1.28 -1.73,1.14 z m 14.59,-2.07 c -0.58,-0.18 -3.17,-0.27 -3.94,-0.2 -0.03,0.94 0.32,1.4 0.15,2.64 -0.07,0.5 -0.35,0.38 0.09,0.66 0.22,0.14 3.45,0.12 3.82,0.03 0.03,-0.59 0.04,-2.84 -0.11,-3.13 m -3.37,0.27 c 0.6,-0.24 2.47,-0.05 3.13,0.24 l -0.21,2.3 -0.69,-0.22 c 0.3,-0.55 0.47,-0.61 0.62,-1.26 -0.48,-0.55 -0.26,-0.5 -1.09,-0.72 -0.55,-0.15 -0.76,-0.22 -1.16,0.13 -0.96,0.84 0.15,1.54 0.62,2 l -1.14,0.02 -0.08,-2.48 z m 1.07,0.93 c 0,0 0.06,-0.04 0.09,-0.05 0.47,-0.26 0.96,-0.36 1.19,0.06 0.3,0.55 -0.96,2.01 -1.63,0.26 z m -16.87,1.68 1.88,-0.06 C 72.46,51.9 72.2,51.92 72.27,50.98 72.32,50.3 72.33,49.79 72.19,49.2 l -2.93,-0.18 -0.32,0.09 c 0.24,4.21 -0.84,3.42 1.61,3.42 m -1.13,-2.82 0.21,-0.14 c 0.65,-0.23 1.69,-0.02 2.24,0.29 l -0.1,2.09 -0.91,0.14 c 0,0 1.62,-1.65 -0.39,-2.25 -0.79,-0.23 -0.73,0.23 -1.05,-0.12 z m 1.05,1.66 -0.38,0.02 c -1.25,-0.09 -0.14,-2.56 1.01,-0.55 -0.16,0.55 -0.03,0.33 -0.39,0.61 -0.02,0 -0.05,-0.02 -0.06,-0.02 0,0 -0.05,-0.02 -0.06,-0.02 0,0 -0.05,-0.02 -0.06,-0.02 -0.01,0 -0.05,-0.01 -0.07,-0.02 z m -1.1,0.1 c 0.81,0.46 0.68,0.29 0.91,0.69 l -0.82,-0.05 -0.09,-0.63 z m 29.11,1.74 3.03,-0.14 c -0.15,-0.92 0.57,-3.07 0.02,-3.25 -0.03,0 -0.08,-0.03 -0.11,-0.04 L 99.5,49.74 c -2.54,0.04 -2.19,-0.03 -2.09,0.86 0.17,1.54 -0.18,2.07 -0.19,2.62 l 1.27,-0.02 z m -0.44,-0.42 c -0.08,-0.47 -0.16,-0.91 -0.18,-1.42 -0.05,-1.35 0,-1.39 3.45,-1.07 l -0.32,2.39 z m -18.16,-0.11 4.24,0.04 0.22,-2.87 -0.1,-0.43 c -0.56,0.05 -4.56,-0.39 -4.84,0.11 l 0.49,3.15 z m 3.03,-2.83 1.09,0.12 -0.29,2.27 c -1.03,0.07 -2.49,0.24 -3.44,-0.09 l -0.21,-0.63 -0.11,-1.54 c 0.81,-0.42 2.01,-0.26 2.95,-0.14 z m 11.75,18.71 c 0.76,0 1.52,0.03 2.28,0.05 0.85,0.02 1.64,-0.12 2.43,-0.11 l 0.64,0.02 0.86,-0.03 c 0.31,0.1 0.36,0.19 0.73,0.12 0.61,-0.11 0.41,-0.2 0.46,-0.55 l -1.93,0.03 h -0.88 l -6.07,0.01 -0.41,0.15 c 0.29,0.35 -0.45,0.34 0.8,0.4 0.35,0.02 0.75,-0.05 1.09,-0.1"
       class="st0"
       id="path3" />
    <path
       d="m 98.37,50.82 c -0.08,0.86 -0.04,1.25 0.68,1.54 0.64,0.26 1.29,0.04 1.55,-0.37 0.68,-1.1 -0.88,-2.09 -2.22,-1.17 m 0.8,0.07 c 0.56,-0.07 1.11,0.03 1.05,0.66 -0.15,0.25 0.15,0.36 -0.92,0.43 l -0.25,-0.46 c -0.09,-0.18 -0.09,-0.12 -0.2,-0.45 l 0.33,-0.18 z M 80.46,51.4 c 0.26,0.27 0.31,0.43 0.57,0.68 0.65,0.06 1.24,-0.14 1.64,-0.49 0.58,-0.51 0.26,-0.79 0.06,-1.42 -1.4,-0.25 -2.06,-0.46 -2.27,1.23 m 0.68,0.21 c -0.51,-1.08 0.39,-1.47 1.36,-1.05 0.06,0.89 -0.49,1.13 -1.36,1.05 z m 9.24,10.69 0.85,-0.09 c 0.06,0.82 -0.26,0.76 0.22,1.23 0.3,-0.42 0.23,-0.73 0.19,-1.28 L 91,61.84 c -0.03,-0.4 0.06,-1.4 -0.81,-0.83 -0.54,0.35 -0.07,0.49 0.09,0.97 0.13,0.4 -0.12,-0.03 0.1,0.32 M 77.2,44.1 c 0.58,0.61 1.7,0.88 1.51,-0.55 -0.8,-0.33 -1.14,0.08 -1.51,0.55 m 23.63,25.42 -0.71,-0.04 -0.02,-0.02 -0.89,-0.08 c 0.04,1.24 -0.38,0.75 1.9,0.79 -0.2,-0.63 0.02,-0.11 -0.28,-0.66 m -4.5,-3.7 c -0.4,-0.02 -0.26,0.06 -0.73,0.25 a 0.443,0.443 0 0 1 -0.07,-0.09 l -0.24,-0.38 c -0.23,-0.26 -0.1,-0.31 -0.52,-0.41 l 0.37,1.27 c 0.77,0.09 1.09,0.1 1.2,-0.64 M 96.14,44.2 c 0.13,0.74 0.08,0.52 0.7,0.43 1.18,-0.17 0.25,-1.48 -0.7,-0.43 m -24.1,21.16 c 0.34,-0.49 0.12,-0.37 0.22,-1.15 l 0.43,0.32 c 0,0 0.06,0.05 0.09,0.07 0.01,-0.77 0.01,-0.88 -0.73,-0.89 l -0.23,1.17 c 0.09,0.76 0,0.2 0.22,0.48"
       class="st0"
       id="path4" />
  </g>
</svg>
